# xmcd
# Track frame offsets:
# 150
# 13610
# 27131
# 41025
# 55412
# 69571
# 83565
# 96476
# 110212
# 124567
# 138719
# 153555
# 166932
# 179747
# 193622
# 207263
# 220778
# 234277
# 249411
# 263227
# 278003
# 292414
# 306848
# 319170
# 332584
#
# Disc length: 4602 seconds
# Revision: 1
# Processed by: cddbd v1.5.2PL0 Copyright (c) Steve Scherf et al.
# Submitted via: VisiTrax 2.10.1.251 - For more info visit www.synapsa.com
#
DISCID=7a11f819
DTITLE=Charley Patton - Pony Blues (A Proper Introduction to Charley Patton)
DYEAR=1929
DGENRE=Blues
TTITLE0=Down The Dirt Road Blues
TTITLE1=Pony Blues
TTITLE2=Pea Vine Blues
TTITLE3=A Spoonful Blues
TTITLE4=Shake It And Break It (But Don't Let It Fall Mama)
TTITLE5=Prayer Of Death, Pt 1
TTITLE6=Prayer Of Death, Pt 2
TTITLE7=Devil Sent The Rain Blues
TTITLE8=Frankie And Albert
TTITLE9=Green River Blues
TTITLE10=Hammer Blues
TTITLE11=Magnolia Blues
TTITLE12=Heart Like Railroad Steel
TTITLE13=Jim Lee Blues, Pt 1
TTITLE14=Jim Lee Blues, Pt 2
TTITLE15=High Water Everywhere, Pt 1
TTITLE16=High Water Everywhere, Pt 2
TTITLE17=Dry Well Blues
TTITLE18=Some Summer Day
TTITLE19=Moon Going Down
TTITLE20=Bird Nest Bound
TTITLE21=High Sherrif Blues
TTITLE22=Revenue Man Blues
TTITLE23=Poor Me
TTITLE24=Hang It On The Wall
EXTD=
EXTT0=
EXTT1=
EXTT2=
EXTT3=
EXTT4=
EXTT5=
EXTT6=
EXTT7=
EXTT8=
EXTT9=
EXTT10=
EXTT11=
EXTT12=
EXTT13=
EXTT14=
EXTT15=
EXTT16=
EXTT17=
EXTT18=
EXTT19=
EXTT20=
EXTT21=
EXTT22=
EXTT23=
EXTT24=
PLAYORDER=
